# generated by generate_cave.py
v 13.2617 5.0310 0.0040
v 13.8716 5.0310 0.0040
v 13.8687 5.0838 0.0040
v 13.7977 5.1294 0.0040
v 13.6602 5.1521 0.0040
v 13.5217 5.1552 0.0040
v 13.4341 5.1675 0.0040
v 13.3689 5.2100 0.0040
v 13.2617 5.2643 0.0040
v 13.1079 5.2879 0.0040
v 12.9707 5.2613 0.0040
v 12.8955 5.2060 0.0040
v 12.8580 5.1537 0.0040
v 12.8167 5.1126 0.0040
v 12.7785 5.0730 0.0040
v 12.7755 5.0310 0.0040
v 12.8000 4.9908 0.0040
v 12.8101 4.9481 0.0040
v 12.8033 4.8916 0.0040
v 12.8383 4.8286 0.0040
v 12.9586 4.7910 0.0040
v 13.1250 4.8026 0.0040
v 13.2617 4.8464 0.0040
v 13.3518 4.8805 0.0040
v 13.4463 4.8848 0.0040
v 13.5789 4.8793 0.0040
v 13.7149 4.8932 0.0040
v 13.8043 4.9313 0.0040
v 13.8471 4.9800 0.0040
v 11.3414 -2.5028 0.0040
v 11.9196 -2.5028 0.0040
v 11.8847 -2.4501 0.0040
v 11.8365 -2.4016 0.0040
v 11.7653 -2.3593 0.0040
v 11.6539 -2.3365 0.0040
v 11.5269 -2.3393 0.0040
v 11.4253 -2.3468 0.0040
v 11.3414 -2.3297 0.0040
v 11.2267 -2.2895 0.0040
v 11.0708 -2.2642 0.0040
v 10.9353 -2.2866 0.0040
v 10.8832 -2.3477 0.0040
v 10.8999 -2.4125 0.0040
v 10.9176 -2.4617 0.0040
v 10.9053 -2.5028 0.0040
v 10.8958 -2.5460 0.0040
v 10.9226 -2.5884 0.0040
v 10.9724 -2.6277 0.0040
v 11.0215 -2.6731 0.0040
v 11.0869 -2.7272 0.0040
v 11.1996 -2.7666 0.0040
v 11.3414 -2.7603 0.0040
v 11.4524 -2.7092 0.0040
v 11.5109 -2.6522 0.0040
v 11.5677 -2.6232 0.0040
v 11.6762 -2.6161 0.0040
v 11.8137 -2.5993 0.0040
v 11.9065 -2.5575 0.0040
v 4.8107 -4.6443 0.0040
v 5.3461 -4.6443 0.0040
v 5.2239 -4.5730 0.0040
v 5.1215 -4.5312 0.0040
v 5.0874 -4.4776 0.0040
v 5.0794 -4.3898 0.0040
v 5.0308 -4.2991 0.0040
v 4.9298 -4.2499 0.0040
v 4.8107 -4.2469 0.0040
v 4.6957 -4.2637 0.0040
v 4.5858 -4.2915 0.0040
v 4.4976 -4.3477 0.0040
v 4.4633 -4.4350 0.0040
v 4.4763 -4.5226 0.0040
v 4.4728 -4.5860 0.0040
v 4.4029 -4.6443 0.0040
v 4.3043 -4.7316 0.0040
v 4.2717 -4.8403 0.0040
v 4.3500 -4.9217 0.0040
v 4.4913 -4.9468 0.0040
v 4.6215 -4.9409 0.0040
v 4.7200 -4.9444 0.0040
v 4.8107 -4.9593 0.0040
v 4.9055 -4.9583 0.0040
v 4.9950 -4.9334 0.0040
v 5.0856 -4.9047 0.0040
v 5.2007 -4.8792 0.0040
v 5.3261 -4.8317 0.0040
v 5.3924 -4.7446 0.0040
v 9.1162 -1.8590 0.0040
v 9.4893 -1.8590 0.0040
v 9.4892 -1.8043 0.0040
v 9.5506 -1.7246 0.0040
v 9.5840 -1.6193 0.0040
v 9.5193 -1.5343 0.0040
v 9.3791 -1.5083 0.0040
v 9.2338 -1.5280 0.0040
v 9.1162 -1.5523 0.0040
v 9.0124 -1.5668 0.0040
v 8.9152 -1.5908 0.0040
v 8.8382 -1.6351 0.0040
v 8.7734 -1.6834 0.0040
v 8.6817 -1.7246 0.0040
v 8.5563 -1.7769 0.0040
v 8.4656 -1.8590 0.0040
v 8.4912 -1.9507 0.0040
v 8.6283 -2.0100 0.0040
v 8.7837 -2.0294 0.0040
v 8.8811 -2.0485 0.0040
v 8.9350 -2.1009 0.0040
v 9.0060 -2.1692 0.0040
v 9.1162 -2.2100 0.0040
v 9.2402 -2.2081 0.0040
v 9.3594 -2.1834 0.0040
v 9.4765 -2.1493 0.0040
v 9.5737 -2.0935 0.0040
v 9.6040 -2.0100 0.0040
v 9.5543 -1.9233 0.0040
v 14.1704 4.6714 0.0040
v 14.7350 4.6714 0.0040
v 14.7467 4.7396 0.0040
v 14.6832 4.7995 0.0040
v 14.5484 4.8278 0.0040
v 14.4108 4.8278 0.0040
v 14.3245 4.8374 0.0040
v 14.2647 4.8857 0.0040
v 14.1704 4.9515 0.0040
v 14.0333 4.9832 0.0040
v 13.9060 4.9563 0.0040
v 13.8279 4.8943 0.0040
v 13.7817 4.8322 0.0040
v 13.7401 4.7789 0.0040
v 13.7153 4.7253 0.0040
v 13.7312 4.6714 0.0040
v 13.7680 4.6237 0.0040
v 13.7788 4.5735 0.0040
v 13.7636 4.5030 0.0040
v 13.7849 4.4205 0.0040
v 13.8889 4.3681 0.0040
v 14.0413 4.3778 0.0040
v 14.1704 4.4306 0.0040
v 14.2566 4.4754 0.0040
v 14.3416 4.4870 0.0040
v 14.4537 4.4870 0.0040
v 14.5666 4.5075 0.0040
v 14.6446 4.5529 0.0040
v 14.6939 4.6094 0.0040
v 5.2490 2.7729 0.0040
v 5.8074 2.7729 0.0040
v 5.8146 2.8329 0.0040
v 5.7193 2.8783 0.0040
v 5.5727 2.8930 0.0040
v 5.4584 2.8950 0.0040
v 5.3989 2.9177 0.0040
v 5.3440 2.9665 0.0040
v 5.2490 3.0101 0.0040
v 5.1287 3.0182 0.0040
v 5.0212 2.9930 0.0040
v 4.9350 2.9561 0.0040
v 4.8609 2.9169 0.0040
v 4.8149 2.8702 0.0040
v 4.8259 2.8178 0.0040
v 4.8784 2.7729 0.0040
v 4.9088 2.7367 0.0040
v 4.8823 2.6907 0.0040
v 4.8463 2.6234 0.0040
v 4.8791 2.5571 0.0040
v 4.9958 2.5282 0.0040
v 5.1373 2.5450 0.0040
v 5.2490 2.5778 0.0040
v 5.3354 2.5968 0.0040
v 5.4243 2.6035 0.0040
v 5.5143 2.6181 0.0040
v 5.5873 2.6474 0.0040
v 5.6519 2.6826 0.0040
v 5.7317 2.7216 0.0040
vt 13.2617 5.0310
vt 13.8716 5.0310
vt 13.8687 5.0838
vt 13.7977 5.1294
vt 13.6602 5.1521
vt 13.5217 5.1552
vt 13.4341 5.1675
vt 13.3689 5.2100
vt 13.2617 5.2643
vt 13.1079 5.2879
vt 12.9707 5.2613
vt 12.8955 5.2060
vt 12.8580 5.1537
vt 12.8167 5.1126
vt 12.7785 5.0730
vt 12.7755 5.0310
vt 12.8000 4.9908
vt 12.8101 4.9481
vt 12.8033 4.8916
vt 12.8383 4.8286
vt 12.9586 4.7910
vt 13.1250 4.8026
vt 13.2617 4.8464
vt 13.3518 4.8805
vt 13.4463 4.8848
vt 13.5789 4.8793
vt 13.7149 4.8932
vt 13.8043 4.9313
vt 13.8471 4.9800
vt 11.3414 -2.5028
vt 11.9196 -2.5028
vt 11.8847 -2.4501
vt 11.8365 -2.4016
vt 11.7653 -2.3593
vt 11.6539 -2.3365
vt 11.5269 -2.3393
vt 11.4253 -2.3468
vt 11.3414 -2.3297
vt 11.2267 -2.2895
vt 11.0708 -2.2642
vt 10.9353 -2.2866
vt 10.8832 -2.3477
vt 10.8999 -2.4125
vt 10.9176 -2.4617
vt 10.9053 -2.5028
vt 10.8958 -2.5460
vt 10.9226 -2.5884
vt 10.9724 -2.6277
vt 11.0215 -2.6731
vt 11.0869 -2.7272
vt 11.1996 -2.7666
vt 11.3414 -2.7603
vt 11.4524 -2.7092
vt 11.5109 -2.6522
vt 11.5677 -2.6232
vt 11.6762 -2.6161
vt 11.8137 -2.5993
vt 11.9065 -2.5575
vt 4.8107 -4.6443
vt 5.3461 -4.6443
vt 5.2239 -4.5730
vt 5.1215 -4.5312
vt 5.0874 -4.4776
vt 5.0794 -4.3898
vt 5.0308 -4.2991
vt 4.9298 -4.2499
vt 4.8107 -4.2469
vt 4.6957 -4.2637
vt 4.5858 -4.2915
vt 4.4976 -4.3477
vt 4.4633 -4.4350
vt 4.4763 -4.5226
vt 4.4728 -4.5860
vt 4.4029 -4.6443
vt 4.3043 -4.7316
vt 4.2717 -4.8403
vt 4.3500 -4.9217
vt 4.4913 -4.9468
vt 4.6215 -4.9409
vt 4.7200 -4.9444
vt 4.8107 -4.9593
vt 4.9055 -4.9583
vt 4.9950 -4.9334
vt 5.0856 -4.9047
vt 5.2007 -4.8792
vt 5.3261 -4.8317
vt 5.3924 -4.7446
vt 9.1162 -1.8590
vt 9.4893 -1.8590
vt 9.4892 -1.8043
vt 9.5506 -1.7246
vt 9.5840 -1.6193
vt 9.5193 -1.5343
vt 9.3791 -1.5083
vt 9.2338 -1.5280
vt 9.1162 -1.5523
vt 9.0124 -1.5668
vt 8.9152 -1.5908
vt 8.8382 -1.6351
vt 8.7734 -1.6834
vt 8.6817 -1.7246
vt 8.5563 -1.7769
vt 8.4656 -1.8590
vt 8.4912 -1.9507
vt 8.6283 -2.0100
vt 8.7837 -2.0294
vt 8.8811 -2.0485
vt 8.9350 -2.1009
vt 9.0060 -2.1692
vt 9.1162 -2.2100
vt 9.2402 -2.2081
vt 9.3594 -2.1834
vt 9.4765 -2.1493
vt 9.5737 -2.0935
vt 9.6040 -2.0100
vt 9.5543 -1.9233
vt 14.1704 4.6714
vt 14.7350 4.6714
vt 14.7467 4.7396
vt 14.6832 4.7995
vt 14.5484 4.8278
vt 14.4108 4.8278
vt 14.3245 4.8374
vt 14.2647 4.8857
vt 14.1704 4.9515
vt 14.0333 4.9832
vt 13.9060 4.9563
vt 13.8279 4.8943
vt 13.7817 4.8322
vt 13.7401 4.7789
vt 13.7153 4.7253
vt 13.7312 4.6714
vt 13.7680 4.6237
vt 13.7788 4.5735
vt 13.7636 4.5030
vt 13.7849 4.4205
vt 13.8889 4.3681
vt 14.0413 4.3778
vt 14.1704 4.4306
vt 14.2566 4.4754
vt 14.3416 4.4870
vt 14.4537 4.4870
vt 14.5666 4.5075
vt 14.6446 4.5529
vt 14.6939 4.6094
vt 5.2490 2.7729
vt 5.8074 2.7729
vt 5.8146 2.8329
vt 5.7193 2.8783
vt 5.5727 2.8930
vt 5.4584 2.8950
vt 5.3989 2.9177
vt 5.3440 2.9665
vt 5.2490 3.0101
vt 5.1287 3.0182
vt 5.0212 2.9930
vt 4.9350 2.9561
vt 4.8609 2.9169
vt 4.8149 2.8702
vt 4.8259 2.8178
vt 4.8784 2.7729
vt 4.9088 2.7367
vt 4.8823 2.6907
vt 4.8463 2.6234
vt 4.8791 2.5571
vt 4.9958 2.5282
vt 5.1373 2.5450
vt 5.2490 2.5778
vt 5.3354 2.5968
vt 5.4243 2.6035
vt 5.5143 2.6181
vt 5.5873 2.6474
vt 5.6519 2.6826
vt 5.7317 2.7216
vn 0.000 0.000 1.000
vn 0.000 0.000 1.000
vn 0.000 0.000 1.000
vn 0.000 0.000 1.000
vn 0.000 0.000 1.000
vn 0.000 0.000 1.000
vn 0.000 0.000 1.000
vn 0.000 0.000 1.000
vn 0.000 0.000 1.000
vn 0.000 0.000 1.000
vn 0.000 0.000 1.000
vn 0.000 0.000 1.000
vn 0.000 0.000 1.000
vn 0.000 0.000 1.000
vn 0.000 0.000 1.000
vn 0.000 0.000 1.000
vn 0.000 0.000 1.000
vn 0.000 0.000 1.000
vn 0.000 0.000 1.000
vn 0.000 0.000 1.000
vn 0.000 0.000 1.000
vn 0.000 0.000 1.000
vn 0.000 0.000 1.000
vn 0.000 0.000 1.000
vn 0.000 0.000 1.000
vn 0.000 0.000 1.000
vn 0.000 0.000 1.000
vn 0.000 0.000 1.000
vn 0.000 0.000 1.000
vn 0.000 0.000 1.000
vn 0.000 0.000 1.000
vn 0.000 0.000 1.000
vn 0.000 0.000 1.000
vn 0.000 0.000 1.000
vn 0.000 0.000 1.000
vn 0.000 0.000 1.000
vn 0.000 0.000 1.000
vn 0.000 0.000 1.000
vn 0.000 0.000 1.000
vn 0.000 0.000 1.000
vn 0.000 0.000 1.000
vn 0.000 0.000 1.000
vn 0.000 0.000 1.000
vn 0.000 0.000 1.000
vn 0.000 0.000 1.000
vn 0.000 0.000 1.000
vn 0.000 0.000 1.000
vn 0.000 0.000 1.000
vn 0.000 0.000 1.000
vn 0.000 0.000 1.000
vn 0.000 0.000 1.000
vn 0.000 0.000 1.000
vn 0.000 0.000 1.000
vn 0.000 0.000 1.000
vn 0.000 0.000 1.000
vn 0.000 0.000 1.000
vn 0.000 0.000 1.000
vn 0.000 0.000 1.000
vn 0.000 0.000 1.000
vn 0.000 0.000 1.000
vn 0.000 0.000 1.000
vn 0.000 0.000 1.000
vn 0.000 0.000 1.000
vn 0.000 0.000 1.000
vn 0.000 0.000 1.000
vn 0.000 0.000 1.000
vn 0.000 0.000 1.000
vn 0.000 0.000 1.000
vn 0.000 0.000 1.000
vn 0.000 0.000 1.000
vn 0.000 0.000 1.000
vn 0.000 0.000 1.000
vn 0.000 0.000 1.000
vn 0.000 0.000 1.000
vn 0.000 0.000 1.000
vn 0.000 0.000 1.000
vn 0.000 0.000 1.000
vn 0.000 0.000 1.000
vn 0.000 0.000 1.000
vn 0.000 0.000 1.000
vn 0.000 0.000 1.000
vn 0.000 0.000 1.000
vn 0.000 0.000 1.000
vn 0.000 0.000 1.000
vn 0.000 0.000 1.000
vn 0.000 0.000 1.000
vn 0.000 0.000 1.000
vn 0.000 0.000 1.000
vn 0.000 0.000 1.000
vn 0.000 0.000 1.000
vn 0.000 0.000 1.000
vn 0.000 0.000 1.000
vn 0.000 0.000 1.000
vn 0.000 0.000 1.000
vn 0.000 0.000 1.000
vn 0.000 0.000 1.000
vn 0.000 0.000 1.000
vn 0.000 0.000 1.000
vn 0.000 0.000 1.000
vn 0.000 0.000 1.000
vn 0.000 0.000 1.000
vn 0.000 0.000 1.000
vn 0.000 0.000 1.000
vn 0.000 0.000 1.000
vn 0.000 0.000 1.000
vn 0.000 0.000 1.000
vn 0.000 0.000 1.000
vn 0.000 0.000 1.000
vn 0.000 0.000 1.000
vn 0.000 0.000 1.000
vn 0.000 0.000 1.000
vn 0.000 0.000 1.000
vn 0.000 0.000 1.000
vn 0.000 0.000 1.000
vn 0.000 0.000 1.000
vn 0.000 0.000 1.000
vn 0.000 0.000 1.000
vn 0.000 0.000 1.000
vn 0.000 0.000 1.000
vn 0.000 0.000 1.000
vn 0.000 0.000 1.000
vn 0.000 0.000 1.000
vn 0.000 0.000 1.000
vn 0.000 0.000 1.000
vn 0.000 0.000 1.000
vn 0.000 0.000 1.000
vn 0.000 0.000 1.000
vn 0.000 0.000 1.000
vn 0.000 0.000 1.000
vn 0.000 0.000 1.000
vn 0.000 0.000 1.000
vn 0.000 0.000 1.000
vn 0.000 0.000 1.000
vn 0.000 0.000 1.000
vn 0.000 0.000 1.000
vn 0.000 0.000 1.000
vn 0.000 0.000 1.000
vn 0.000 0.000 1.000
vn 0.000 0.000 1.000
vn 0.000 0.000 1.000
vn 0.000 0.000 1.000
vn 0.000 0.000 1.000
vn 0.000 0.000 1.000
vn 0.000 0.000 1.000
vn 0.000 0.000 1.000
vn 0.000 0.000 1.000
vn 0.000 0.000 1.000
vn 0.000 0.000 1.000
vn 0.000 0.000 1.000
vn 0.000 0.000 1.000
vn 0.000 0.000 1.000
vn 0.000 0.000 1.000
vn 0.000 0.000 1.000
vn 0.000 0.000 1.000
vn 0.000 0.000 1.000
vn 0.000 0.000 1.000
vn 0.000 0.000 1.000
vn 0.000 0.000 1.000
vn 0.000 0.000 1.000
vn 0.000 0.000 1.000
vn 0.000 0.000 1.000
vn 0.000 0.000 1.000
vn 0.000 0.000 1.000
vn 0.000 0.000 1.000
vn 0.000 0.000 1.000
vn 0.000 0.000 1.000
vn 0.000 0.000 1.000
vn 0.000 0.000 1.000
vn 0.000 0.000 1.000
vn 0.000 0.000 1.000
vn 0.000 0.000 1.000
vn 0.000 0.000 1.000
vn 0.000 0.000 1.000
vn 0.000 0.000 1.000
f 1/1/1 2/2/2 3/3/3
f 1/1/1 3/3/3 4/4/4
f 1/1/1 4/4/4 5/5/5
f 1/1/1 5/5/5 6/6/6
f 1/1/1 6/6/6 7/7/7
f 1/1/1 7/7/7 8/8/8
f 1/1/1 8/8/8 9/9/9
f 1/1/1 9/9/9 10/10/10
f 1/1/1 10/10/10 11/11/11
f 1/1/1 11/11/11 12/12/12
f 1/1/1 12/12/12 13/13/13
f 1/1/1 13/13/13 14/14/14
f 1/1/1 14/14/14 15/15/15
f 1/1/1 15/15/15 16/16/16
f 1/1/1 16/16/16 17/17/17
f 1/1/1 17/17/17 18/18/18
f 1/1/1 18/18/18 19/19/19
f 1/1/1 19/19/19 20/20/20
f 1/1/1 20/20/20 21/21/21
f 1/1/1 21/21/21 22/22/22
f 1/1/1 22/22/22 23/23/23
f 1/1/1 23/23/23 24/24/24
f 1/1/1 24/24/24 25/25/25
f 1/1/1 25/25/25 26/26/26
f 1/1/1 26/26/26 27/27/27
f 1/1/1 27/27/27 28/28/28
f 1/1/1 28/28/28 29/29/29
f 1/1/1 29/29/29 2/2/2
f 30/30/30 31/31/31 32/32/32
f 30/30/30 32/32/32 33/33/33
f 30/30/30 33/33/33 34/34/34
f 30/30/30 34/34/34 35/35/35
f 30/30/30 35/35/35 36/36/36
f 30/30/30 36/36/36 37/37/37
f 30/30/30 37/37/37 38/38/38
f 30/30/30 38/38/38 39/39/39
f 30/30/30 39/39/39 40/40/40
f 30/30/30 40/40/40 41/41/41
f 30/30/30 41/41/41 42/42/42
f 30/30/30 42/42/42 43/43/43
f 30/30/30 43/43/43 44/44/44
f 30/30/30 44/44/44 45/45/45
f 30/30/30 45/45/45 46/46/46
f 30/30/30 46/46/46 47/47/47
f 30/30/30 47/47/47 48/48/48
f 30/30/30 48/48/48 49/49/49
f 30/30/30 49/49/49 50/50/50
f 30/30/30 50/50/50 51/51/51
f 30/30/30 51/51/51 52/52/52
f 30/30/30 52/52/52 53/53/53
f 30/30/30 53/53/53 54/54/54
f 30/30/30 54/54/54 55/55/55
f 30/30/30 55/55/55 56/56/56
f 30/30/30 56/56/56 57/57/57
f 30/30/30 57/57/57 58/58/58
f 30/30/30 58/58/58 31/31/31
f 59/59/59 60/60/60 61/61/61
f 59/59/59 61/61/61 62/62/62
f 59/59/59 62/62/62 63/63/63
f 59/59/59 63/63/63 64/64/64
f 59/59/59 64/64/64 65/65/65
f 59/59/59 65/65/65 66/66/66
f 59/59/59 66/66/66 67/67/67
f 59/59/59 67/67/67 68/68/68
f 59/59/59 68/68/68 69/69/69
f 59/59/59 69/69/69 70/70/70
f 59/59/59 70/70/70 71/71/71
f 59/59/59 71/71/71 72/72/72
f 59/59/59 72/72/72 73/73/73
f 59/59/59 73/73/73 74/74/74
f 59/59/59 74/74/74 75/75/75
f 59/59/59 75/75/75 76/76/76
f 59/59/59 76/76/76 77/77/77
f 59/59/59 77/77/77 78/78/78
f 59/59/59 78/78/78 79/79/79
f 59/59/59 79/79/79 80/80/80
f 59/59/59 80/80/80 81/81/81
f 59/59/59 81/81/81 82/82/82
f 59/59/59 82/82/82 83/83/83
f 59/59/59 83/83/83 84/84/84
f 59/59/59 84/84/84 85/85/85
f 59/59/59 85/85/85 86/86/86
f 59/59/59 86/86/86 87/87/87
f 59/59/59 87/87/87 60/60/60
f 88/88/88 89/89/89 90/90/90
f 88/88/88 90/90/90 91/91/91
f 88/88/88 91/91/91 92/92/92
f 88/88/88 92/92/92 93/93/93
f 88/88/88 93/93/93 94/94/94
f 88/88/88 94/94/94 95/95/95
f 88/88/88 95/95/95 96/96/96
f 88/88/88 96/96/96 97/97/97
f 88/88/88 97/97/97 98/98/98
f 88/88/88 98/98/98 99/99/99
f 88/88/88 99/99/99 100/100/100
f 88/88/88 100/100/100 101/101/101
f 88/88/88 101/101/101 102/102/102
f 88/88/88 102/102/102 103/103/103
f 88/88/88 103/103/103 104/104/104
f 88/88/88 104/104/104 105/105/105
f 88/88/88 105/105/105 106/106/106
f 88/88/88 106/106/106 107/107/107
f 88/88/88 107/107/107 108/108/108
f 88/88/88 108/108/108 109/109/109
f 88/88/88 109/109/109 110/110/110
f 88/88/88 110/110/110 111/111/111
f 88/88/88 111/111/111 112/112/112
f 88/88/88 112/112/112 113/113/113
f 88/88/88 113/113/113 114/114/114
f 88/88/88 114/114/114 115/115/115
f 88/88/88 115/115/115 116/116/116
f 88/88/88 116/116/116 89/89/89
f 117/117/117 118/118/118 119/119/119
f 117/117/117 119/119/119 120/120/120
f 117/117/117 120/120/120 121/121/121
f 117/117/117 121/121/121 122/122/122
f 117/117/117 122/122/122 123/123/123
f 117/117/117 123/123/123 124/124/124
f 117/117/117 124/124/124 125/125/125
f 117/117/117 125/125/125 126/126/126
f 117/117/117 126/126/126 127/127/127
f 117/117/117 127/127/127 128/128/128
f 117/117/117 128/128/128 129/129/129
f 117/117/117 129/129/129 130/130/130
f 117/117/117 130/130/130 131/131/131
f 117/117/117 131/131/131 132/132/132
f 117/117/117 132/132/132 133/133/133
f 117/117/117 133/133/133 134/134/134
f 117/117/117 134/134/134 135/135/135
f 117/117/117 135/135/135 136/136/136
f 117/117/117 136/136/136 137/137/137
f 117/117/117 137/137/137 138/138/138
f 117/117/117 138/138/138 139/139/139
f 117/117/117 139/139/139 140/140/140
f 117/117/117 140/140/140 141/141/141
f 117/117/117 141/141/141 142/142/142
f 117/117/117 142/142/142 143/143/143
f 117/117/117 143/143/143 144/144/144
f 117/117/117 144/144/144 145/145/145
f 117/117/117 145/145/145 118/118/118
f 146/146/146 147/147/147 148/148/148
f 146/146/146 148/148/148 149/149/149
f 146/146/146 149/149/149 150/150/150
f 146/146/146 150/150/150 151/151/151
f 146/146/146 151/151/151 152/152/152
f 146/146/146 152/152/152 153/153/153
f 146/146/146 153/153/153 154/154/154
f 146/146/146 154/154/154 155/155/155
f 146/146/146 155/155/155 156/156/156
f 146/146/146 156/156/156 157/157/157
f 146/146/146 157/157/157 158/158/158
f 146/146/146 158/158/158 159/159/159
f 146/146/146 159/159/159 160/160/160
f 146/146/146 160/160/160 161/161/161
f 146/146/146 161/161/161 162/162/162
f 146/146/146 162/162/162 163/163/163
f 146/146/146 163/163/163 164/164/164
f 146/146/146 164/164/164 165/165/165
f 146/146/146 165/165/165 166/166/166
f 146/146/146 166/166/166 167/167/167
f 146/146/146 167/167/167 168/168/168
f 146/146/146 168/168/168 169/169/169
f 146/146/146 169/169/169 170/170/170
f 146/146/146 170/170/170 171/171/171
f 146/146/146 171/171/171 172/172/172
f 146/146/146 172/172/172 173/173/173
f 146/146/146 173/173/173 174/174/174
f 146/146/146 174/174/174 147/147/147
